# xmcd CD database file
#
# Track frame offsets:
#	150
#	16360
#	29133
#	44287
#	57536
#	70384
#	86267
#	103208
#	117496
#	131292
#
# Disc length: 1892 seconds
#
# Revision: 2
# Processed by: cddbd v1.5.2PL0 Copyright (c) Steve Scherf et al.
# Submitted via: CDex 2.21
#
DISCID=8d07620a
DTITLE=Kelly Willis and Bruce Robison - Our Year
DYEAR=2014
DGENRE=Country
TTITLE0=Departing Louisiana
TTITLE1=Motor City Man
TTITLE2=Carousel
TTITLE3=Lonely for You
TTITLE4=A Hanging On
TTITLE5=Shake Yourself Loose
TTITLE6=Harper Valley Pta
TTITLE7=Anywhere but Here
TTITLE8=I'll Go to My Grave Loving You
TTITLE9=This Will Be Our Year
EXTD=YEAR: 2014
EXTT0=
EXTT1=
EXTT2=
EXTT3=
EXTT4=
EXTT5=
EXTT6=
EXTT7=
EXTT8=
EXTT9=
PLAYORDER=
